<svg width="648" height="126" viewBox="0 0 648 126" fill="none" xmlns="http://www.w3.org/2000/svg">
<g filter="url(#filter0_d_1210_5)">
<path d="M66.48 28.8C62.84 26.9333 58.9667 25.3467 54.86 24.04C50.7533 22.64 46.8333 21.94 43.1 21.94C38.06 21.94 34.0467 23.06 31.06 25.3C28.1667 27.54 26.72 30.62 26.72 34.54C26.72 37.34 27.7467 39.8133 29.8 41.96C31.8533 44.0133 34.4667 45.8333 37.64 47.42C40.8133 48.9133 44.1733 50.36 47.72 51.76C50.8 52.88 53.8333 54.2333 56.82 55.82C59.9 57.3133 62.6533 59.18 65.08 61.42C67.5067 63.66 69.42 66.46 70.82 69.82C72.3133 73.0867 73.06 77.1467 73.06 82C73.06 87.32 71.7067 92.22 69 96.7C66.2933 101.087 62.42 104.587 57.38 107.2C52.34 109.813 46.18 111.12 38.9 111.12C34.7 111.12 30.5467 110.653 26.44 109.72C22.4267 108.787 18.6 107.527 14.96 105.94C11.32 104.26 7.96 102.393 4.88 100.34L12.16 87.6C14.4 89.28 16.9667 90.82 19.86 92.22C22.7533 93.62 25.74 94.74 28.82 95.58C31.9 96.3267 34.7933 96.7 37.5 96.7C40.3933 96.7 43.24 96.2333 46.04 95.3C48.9333 94.3667 51.3133 92.8267 53.18 90.68C55.14 88.5333 56.12 85.6867 56.12 82.14C56.12 79.2467 55.28 76.7733 53.6 74.72C51.92 72.6667 49.7267 70.8933 47.02 69.4C44.4067 67.8133 41.5133 66.4133 38.34 65.2C35.1667 63.9867 31.9 62.6333 28.54 61.14C25.2733 59.6467 22.24 57.8267 19.44 55.68C16.64 53.44 14.3533 50.7333 12.58 47.56C10.8067 44.3867 9.92 40.4667 9.92 35.8C9.92 30.2 11.2267 25.3467 13.84 21.24C16.4533 17.1333 20.0467 13.8667 24.62 11.44C29.2867 9.01333 34.6533 7.70666 40.72 7.51999C47.9067 7.51999 54.02 8.40666 59.06 10.18C64.1933 11.86 68.72 13.9133 72.64 16.34L66.48 28.8ZM116.184 111.54C110.584 111.54 105.498 110.373 100.924 108.04C96.4444 105.707 92.8977 102.253 90.2844 97.68C87.671 93.0133 86.3644 87.2733 86.3644 80.46C86.3644 73.74 87.7177 68 90.4244 63.24C93.2244 58.3867 96.8644 54.6533 101.344 52.04C105.918 49.4267 110.864 48.12 116.184 48.12C121.878 48.12 126.451 49.24 129.904 51.48C133.451 53.72 136.204 56.38 138.164 59.46L137.324 61.7L138.864 50.78H153.284V110H137.604V95.58L139.144 99.36C138.771 99.92 138.024 100.853 136.904 102.16C135.784 103.373 134.244 104.727 132.284 106.22C130.324 107.713 127.991 108.973 125.284 110C122.671 111.027 119.638 111.54 116.184 111.54ZM120.524 98.66C123.324 98.66 125.844 98.1467 128.084 97.12C130.418 96.0933 132.378 94.6467 133.964 92.78C135.644 90.9133 136.858 88.6733 137.604 86.06V73.18C136.858 70.7533 135.644 68.6533 133.964 66.88C132.284 65.0133 130.231 63.5667 127.804 62.54C125.471 61.5133 122.858 61 119.964 61C116.791 61 113.851 61.7933 111.144 63.38C108.438 64.9667 106.244 67.16 104.564 69.96C102.978 72.76 102.184 75.98 102.184 79.62C102.184 83.1667 103.024 86.3867 104.704 89.28C106.384 92.1733 108.624 94.46 111.424 96.14C114.224 97.82 117.258 98.66 120.524 98.66ZM174.936 0.799996H190.616V110H174.936V0.799996ZM240.404 111.54C233.404 111.54 227.43 110.187 222.484 107.48C217.537 104.773 213.757 101.04 211.144 96.28C208.53 91.4267 207.224 85.9667 207.224 79.9C207.224 73.9267 208.717 68.56 211.704 63.8C214.69 59.04 218.704 55.26 223.744 52.46C228.877 49.5667 234.524 48.12 240.684 48.12C248.804 48.12 255.477 50.5 260.704 55.26C266.024 59.9267 269.57 66.5533 271.344 75.14L223.604 91.24L219.964 82.42L257.204 69.12L253.984 70.94C252.957 68.14 251.277 65.7133 248.944 63.66C246.704 61.6067 243.53 60.58 239.424 60.58C236.157 60.58 233.264 61.3733 230.744 62.96C228.224 64.4533 226.217 66.6 224.724 69.4C223.324 72.1067 222.624 75.3267 222.624 79.06C222.624 82.8867 223.417 86.2467 225.004 89.14C226.59 92.0333 228.737 94.2733 231.444 95.86C234.15 97.3533 237.23 98.1 240.684 98.1C243.11 98.1 245.444 97.68 247.684 96.84C249.924 96 252.024 94.88 253.984 93.48L261.124 105.1C258.044 107.06 254.637 108.647 250.904 109.86C247.264 110.98 243.764 111.54 240.404 111.54ZM304.552 111.26C300.072 111.26 295.779 110.467 291.672 108.88C287.659 107.293 284.252 104.96 281.452 101.88L288.172 93.06C290.786 95.58 293.352 97.4467 295.872 98.66C298.486 99.78 300.959 100.34 303.292 100.34C305.066 100.34 306.652 100.153 308.052 99.78C309.546 99.3133 310.712 98.6133 311.552 97.68C312.486 96.7467 312.952 95.4867 312.952 93.9C312.952 92.0333 312.299 90.5867 310.992 89.56C309.686 88.44 308.006 87.5533 305.952 86.9C303.899 86.1533 301.752 85.4533 299.512 84.8C294.379 83.2133 290.552 80.88 288.032 77.8C285.512 74.72 284.252 71.1733 284.252 67.16C284.252 64.08 285.046 61.14 286.632 58.34C288.219 55.4467 290.646 53.0667 293.912 51.2C297.179 49.3333 301.286 48.4 306.232 48.4C310.712 48.4 314.586 48.9133 317.852 49.94C321.212 50.8733 324.339 52.5067 327.232 54.84L321.212 64.22C319.532 62.6333 317.526 61.42 315.192 60.58C312.952 59.6467 310.899 59.1333 309.032 59.04C307.352 58.9467 305.859 59.18 304.552 59.74C303.246 60.2067 302.172 60.9067 301.332 61.84C300.586 62.7733 300.212 63.8467 300.212 65.06C300.119 66.9267 300.726 68.42 302.032 69.54C303.432 70.66 305.206 71.5467 307.352 72.2C309.499 72.8533 311.646 73.5533 313.792 74.3C316.686 75.14 319.252 76.3067 321.492 77.8C323.732 79.2933 325.459 81.1133 326.672 83.26C327.979 85.3133 328.632 87.88 328.632 90.96C328.632 94.5067 327.746 97.8667 325.972 101.04C324.199 104.12 321.539 106.593 317.992 108.46C314.446 110.327 309.966 111.26 304.552 111.26ZM424.791 102.02C423.391 103.047 421.198 104.307 418.211 105.8C415.225 107.293 411.678 108.6 407.571 109.72C403.558 110.747 399.078 111.213 394.131 111.12C386.198 111.027 379.058 109.627 372.711 106.92C366.365 104.12 360.998 100.387 356.611 95.72C352.225 90.96 348.818 85.5467 346.391 79.48C344.058 73.32 342.891 66.7867 342.891 59.88C342.891 52.1333 344.105 45.04 346.531 38.6C348.958 32.16 352.411 26.6067 356.891 21.94C361.371 17.18 366.691 13.4933 372.851 10.88C379.011 8.26666 385.731 6.95999 393.011 6.95999C399.451 6.95999 405.191 7.84666 410.231 9.62C415.365 11.3 419.658 13.2133 423.111 15.36L416.671 30.76C414.058 28.8933 410.791 27.0733 406.871 25.3C402.951 23.5267 398.518 22.64 393.571 22.64C389.091 22.64 384.798 23.5733 380.691 25.44C376.585 27.2133 372.991 29.78 369.911 33.14C366.831 36.4067 364.358 40.2333 362.491 44.62C360.718 49.0067 359.831 53.7667 359.831 58.9C359.831 64.22 360.625 69.12 362.211 73.6C363.891 77.9867 366.225 81.8133 369.211 85.08C372.291 88.3467 375.931 90.9133 380.131 92.78C384.425 94.5533 389.185 95.44 394.411 95.44C399.731 95.44 404.351 94.6467 408.271 93.06C412.285 91.38 415.505 89.5133 417.931 87.46L424.791 102.02ZM475.235 8.07999C480.835 8.07999 485.968 8.82666 490.635 10.32C495.302 11.72 499.268 13.82 502.535 16.62C505.802 19.42 508.322 22.8733 510.095 26.98C511.962 30.9933 512.895 35.6133 512.895 40.84C512.895 44.8533 512.288 48.8667 511.075 52.88C509.862 56.8933 507.855 60.5333 505.055 63.8C502.348 67.0667 498.755 69.68 494.275 71.64C489.795 73.6 484.242 74.58 477.615 74.58H462.915V110H446.535V8.07999H475.235ZM477.475 58.9C481.115 58.9 484.148 58.34 486.575 57.22C489.002 56.0067 490.868 54.5133 492.175 52.74C493.575 50.9667 494.555 49.1 495.115 47.14C495.768 45.0867 496.095 43.1733 496.095 41.4C496.095 39.72 495.815 37.9 495.255 35.94C494.695 33.8867 493.762 31.9733 492.455 30.2C491.148 28.3333 489.282 26.7933 486.855 25.58C484.522 24.3667 481.582 23.76 478.035 23.76H462.915V58.9H477.475ZM495.115 68.56L521.155 110H502.255L475.655 68.98L495.115 68.56ZM540.324 110V4.44H540.464L595.344 82.14L588.344 80.6L642.944 4.44H643.224V110H626.984V41.26L628.104 49.66L591.284 101.74H591.004L553.344 49.66L556.144 41.96V110H540.324Z" fill="#FB6900" shape-rendering="crispEdges"/>
<path d="M66.48 28.8L64.6547 32.3593L68.2667 34.2116L70.0657 30.5727L66.48 28.8ZM54.86 24.04L53.5693 27.826L53.6081 27.8393L53.6472 27.8517L54.86 24.04ZM31.06 25.3L28.66 22.1L28.6355 22.1184L28.6113 22.1371L31.06 25.3ZM29.8 41.96L26.9094 44.7249L26.9402 44.757L26.9716 44.7884L29.8 41.96ZM37.64 47.42L35.8512 50.9977L35.8937 51.019L35.9368 51.0393L37.64 47.42ZM47.72 51.76L46.2513 55.4806L46.3019 55.5006L46.353 55.5192L47.72 51.76ZM56.82 55.82L54.9434 59.3525L55.0085 59.3871L55.0749 59.4193L56.82 55.82ZM65.08 61.42L62.3669 64.3592L62.3669 64.3592L65.08 61.42ZM70.82 69.82L67.1277 71.3585L67.1538 71.4212L67.1821 71.483L70.82 69.82ZM69 96.7L72.4041 98.8004L72.414 98.7845L72.4237 98.7685L69 96.7ZM57.38 107.2L59.2213 110.751L59.2213 110.751L57.38 107.2ZM26.44 109.72L25.5339 113.616L25.5437 113.618L25.5535 113.621L26.44 109.72ZM14.96 105.94L13.2838 109.572L13.3225 109.59L13.3617 109.607L14.96 105.94ZM4.88 100.34L1.40703 98.3554L-0.445376 101.597L2.6612 103.668L4.88 100.34ZM12.16 87.6L14.56 84.4L10.9351 81.6813L8.68703 85.6154L12.16 87.6ZM19.86 92.22L18.1178 95.8206L18.1178 95.8206L19.86 92.22ZM28.82 95.58L27.7675 99.4391L27.8224 99.454L27.8776 99.4674L28.82 95.58ZM46.04 95.3L44.812 91.4932L44.7935 91.4991L44.7751 91.5053L46.04 95.3ZM53.18 90.68L50.2261 87.9829L50.1934 88.0187L50.1616 88.0553L53.18 90.68ZM53.6 74.72L50.5042 77.253L50.5042 77.253L53.6 74.72ZM47.02 69.4L44.9441 72.8191L45.015 72.8622L45.0877 72.9023L47.02 69.4ZM38.34 65.2L39.7686 61.4638L39.7686 61.4638L38.34 65.2ZM28.54 61.14L26.877 64.7779L26.8962 64.7867L26.9154 64.7952L28.54 61.14ZM19.44 55.68L16.9412 58.8035L16.9735 58.8293L17.0063 58.8544L19.44 55.68ZM12.58 47.56L9.08823 49.5113L9.08823 49.5113L12.58 47.56ZM13.84 21.24L17.2146 23.3875L17.2146 23.3875L13.84 21.24ZM24.62 11.44L22.7746 7.89112L22.7598 7.8988L22.7451 7.9066L24.62 11.44ZM40.72 7.51999V3.51999H40.6585L40.597 3.52188L40.72 7.51999ZM59.06 10.18L57.7324 13.9532L57.774 13.9679L57.8158 13.9816L59.06 10.18ZM72.64 16.34L76.2257 18.1127L77.8373 14.853L74.7454 12.9389L72.64 16.34ZM68.3053 25.2407C64.4583 23.2679 60.3791 21.5985 56.0728 20.2283L53.6472 27.8517C57.5543 29.0949 61.2217 30.5987 64.6547 32.3593L68.3053 25.2407ZM56.1507 20.254C51.6945 18.7348 47.3371 17.94 43.1 17.94V25.94C46.3296 25.94 49.8122 26.5452 53.5693 27.826L56.1507 20.254ZM43.1 17.94C37.494 17.94 32.5455 19.1859 28.66 22.1L33.46 28.5C35.5479 26.9341 38.626 25.94 43.1 25.94V17.94ZM28.6113 22.1371C24.6615 25.195 22.72 29.4845 22.72 34.54H30.72C30.72 31.7555 31.6718 29.885 33.5087 28.4629L28.6113 22.1371ZM22.72 34.54C22.72 38.4373 24.1919 41.8838 26.9094 44.7249L32.6906 39.1951C31.3015 37.7429 30.72 36.2427 30.72 34.54H22.72ZM26.9716 44.7884C29.3877 47.2046 32.3755 49.2599 35.8512 50.9977L39.4289 43.8423C36.5579 42.4068 34.319 40.8221 32.6284 39.1316L26.9716 44.7884ZM35.9368 51.0393C39.1935 52.5718 42.6322 54.052 46.2513 55.4806L49.1887 48.0394C45.7145 46.668 42.4331 45.2548 39.3432 43.8007L35.9368 51.0393ZM46.353 55.5192C49.2526 56.5736 52.1159 57.8504 54.9434 59.3525L58.6966 52.2875C55.5508 50.6163 52.3474 49.1864 49.087 48.0008L46.353 55.5192ZM55.0749 59.4193C57.8146 60.7476 60.2392 62.3952 62.3669 64.3592L67.7931 58.4808C65.0675 55.9648 61.9854 53.8791 58.5651 52.2207L55.0749 59.4193ZM62.3669 64.3592C64.3284 66.1699 65.9265 68.4756 67.1277 71.3585L74.5123 68.2815C72.9135 64.4444 70.6849 61.1501 67.7931 58.4808L62.3669 64.3592ZM67.1821 71.483C68.3686 74.0784 69.06 77.5299 69.06 82H77.06C77.06 76.7634 76.2581 72.0949 74.4579 68.157L67.1821 71.483ZM69.06 82C69.06 86.6035 67.8995 90.7863 65.5763 94.6315L72.4237 98.7685C75.5138 93.6537 77.06 88.0365 77.06 82H69.06ZM65.5959 94.5996C63.3071 98.3089 60.0033 101.334 55.5387 103.649L59.2213 110.751C64.8368 107.839 69.2795 103.864 72.4041 98.8004L65.5959 94.5996ZM55.5387 103.649C51.2055 105.896 45.7149 107.12 38.9 107.12V115.12C46.6451 115.12 53.4745 113.731 59.2213 110.751L55.5387 103.649ZM38.9 107.12C34.9991 107.12 31.1431 106.687 27.3265 105.819L25.5535 113.621C29.9502 114.62 34.4009 115.12 38.9 115.12V107.12ZM27.3461 105.824C23.5611 104.944 19.9668 103.759 16.5583 102.273L13.3617 109.607C17.2332 111.294 21.2923 112.63 25.5339 113.616L27.3461 105.824ZM16.6362 102.308C13.1693 100.708 9.99254 98.941 7.0988 97.0118L2.6612 103.668C5.92746 105.846 9.4707 107.812 13.2838 109.572L16.6362 102.308ZM8.35297 102.325L15.633 89.5846L8.68703 85.6154L1.40703 98.3554L8.35297 102.325ZM9.76 90.8C12.2334 92.6551 15.026 94.3246 18.1178 95.8206L21.6022 88.6194C18.9073 87.3154 16.5666 85.9049 14.56 84.4L9.76 90.8ZM18.1178 95.8206C21.2311 97.3271 24.4485 98.5339 27.7675 99.4391L29.8725 91.7209C27.0315 90.9461 24.2756 89.9129 21.6022 88.6194L18.1178 95.8206ZM27.8776 99.4674C31.2151 100.276 34.4273 100.7 37.5 100.7V92.7C35.1594 92.7 32.5849 92.3768 29.7624 91.6926L27.8776 99.4674ZM37.5 100.7C40.8319 100.7 44.1054 100.161 47.3049 99.0947L44.7751 91.5053C42.3746 92.3054 39.9547 92.7 37.5 92.7V100.7ZM47.268 99.1068C50.8052 97.9658 53.8207 96.0391 56.1984 93.3047L50.1616 88.0553C48.806 89.6143 47.0615 90.7675 44.812 91.4932L47.268 99.1068ZM56.1339 93.3771C58.9078 90.3391 60.12 86.454 60.12 82.14H52.12C52.12 84.9193 51.3722 86.7276 50.2261 87.9829L56.1339 93.3771ZM60.12 82.14C60.12 78.4128 59.0148 75.0213 56.6958 72.187L50.5042 77.253C51.5452 78.5253 52.12 80.0806 52.12 82.14H60.12ZM56.6958 72.187C54.6446 69.68 52.0324 67.597 48.9523 65.8977L45.0877 72.9023C47.4209 74.1896 49.1954 75.6533 50.5042 77.253L56.6958 72.187ZM49.0959 65.9808C46.2555 64.2563 43.1423 62.7538 39.7686 61.4638L36.9115 68.9362C39.8844 70.0729 42.5578 71.3703 44.9441 72.8191L49.0959 65.9808ZM39.7686 61.4638C36.6664 60.2777 33.4652 58.9517 30.1646 57.4848L26.9154 64.7952C30.3348 66.315 33.667 67.6957 36.9115 68.9362L39.7686 61.4638ZM30.203 57.5021C27.2049 56.1315 24.4308 54.466 21.8737 52.5056L17.0063 58.8544C20.0492 61.1873 23.3418 63.1618 26.877 64.7779L30.203 57.5021ZM21.9388 52.5565C19.5481 50.644 17.5965 48.3372 16.0718 45.6087L9.08823 49.5113C11.1101 53.1295 13.7319 56.236 16.9412 58.8035L21.9388 52.5565ZM16.0718 45.6087C14.7133 43.1777 13.92 39.9728 13.92 35.8H5.92C5.92 40.9605 6.90008 45.5957 9.08823 49.5113L16.0718 45.6087ZM13.92 35.8C13.92 30.8436 15.0684 26.7602 17.2146 23.3875L10.4654 19.0925C7.38498 23.9331 5.92 29.5564 5.92 35.8H13.92ZM17.2146 23.3875C19.4327 19.9021 22.4927 17.097 26.4949 14.9734L22.7451 7.9066C17.6006 10.6363 13.474 14.3646 10.4654 19.0925L17.2146 23.3875ZM26.4654 14.9889C30.5227 12.8791 35.2846 11.6891 40.843 11.5181L40.597 3.52188C34.0221 3.72419 28.0507 5.14756 22.7746 7.89112L26.4654 14.9889ZM40.72 11.52C47.6004 11.52 53.2377 12.3718 57.7324 13.9532L60.3876 6.40674C54.8023 4.44153 48.2129 3.51999 40.72 3.51999V11.52ZM57.8158 13.9816C62.6973 15.5792 66.9262 17.5073 70.5346 19.7411L74.7454 12.9389C70.5138 10.3194 65.6893 8.14083 60.3042 6.3784L57.8158 13.9816ZM69.0543 14.5673L62.8943 27.0273L70.0657 30.5727L76.2257 18.1127L69.0543 14.5673ZM100.924 108.04L99.0766 111.588L99.0915 111.595L99.1065 111.603L100.924 108.04ZM90.2844 97.68L86.7944 99.6344L86.8028 99.6495L86.8114 99.6646L90.2844 97.68ZM90.4244 63.24L86.9596 61.2411L86.9534 61.2519L86.9472 61.2628L90.4244 63.24ZM101.344 52.04L99.3598 48.567L99.3443 48.5759L99.3289 48.5849L101.344 52.04ZM129.904 51.48L127.728 54.8358L127.748 54.849L127.768 54.862L129.904 51.48ZM138.164 59.46L141.91 60.8645L142.61 58.996L141.539 57.3125L138.164 59.46ZM137.324 61.7L133.364 61.1414L141.07 63.1045L137.324 61.7ZM138.864 50.78V46.78H135.389L134.904 50.2214L138.864 50.78ZM153.284 50.78H157.284V46.78H153.284V50.78ZM153.284 110V114H157.284V110H153.284ZM137.604 110H133.604V114H137.604V110ZM137.604 95.58L141.309 94.0708L133.604 95.58H137.604ZM139.144 99.36L142.473 101.579L143.649 99.8145L142.849 97.8508L139.144 99.36ZM136.904 102.16L139.844 104.873L139.894 104.819L139.941 104.763L136.904 102.16ZM132.284 106.22L129.86 103.038L129.86 103.038L132.284 106.22ZM125.284 110L123.866 106.26L123.844 106.268L123.822 106.277L125.284 110ZM128.084 97.12L126.473 93.4587L126.445 93.471L126.418 93.4837L128.084 97.12ZM133.964 92.78L130.991 90.1041L130.953 90.1462L130.917 90.1894L133.964 92.78ZM137.604 86.06L141.45 87.1589L141.604 86.6202V86.06H137.604ZM137.604 73.18H141.604V72.5785L141.427 72.0037L137.604 73.18ZM133.964 66.88L130.991 69.5559L131.025 69.5939L131.061 69.631L133.964 66.88ZM127.804 62.54L126.193 66.2013L126.22 66.2127L126.246 66.2239L127.804 62.54ZM111.144 63.38L113.167 66.8308L113.167 66.8308L111.144 63.38ZM104.564 69.96L101.134 67.902L101.109 67.9447L101.084 67.9879L104.564 69.96ZM104.704 89.28L101.245 91.2885L101.245 91.2885L104.704 89.28ZM111.424 96.14L113.482 92.71L113.482 92.71L111.424 96.14ZM116.184 107.54C111.158 107.54 106.703 106.498 102.742 104.477L99.1065 111.603C104.293 114.249 110.011 115.54 116.184 115.54V107.54ZM102.772 104.492C99.0026 102.529 96.0072 99.6327 93.7573 95.6954L86.8114 99.6646C89.7882 104.874 93.8862 108.884 99.0766 111.588L102.772 104.492ZM93.7744 95.7256C91.575 91.798 90.3644 86.7725 90.3644 80.46H82.3644C82.3644 87.7741 83.7671 94.2287 86.7944 99.6344L93.7744 95.7256ZM90.3644 80.46C90.3644 74.2769 91.6073 69.2518 93.9015 65.2172L86.9472 61.2628C83.8281 66.7482 82.3644 73.2031 82.3644 80.46H90.3644ZM93.8891 65.2389C96.3699 60.9389 99.5295 57.7295 103.36 55.4951L99.3289 48.5849C94.1993 51.5771 90.0789 55.8345 86.9596 61.2411L93.8891 65.2389ZM103.329 55.513C107.292 53.2486 111.553 52.12 116.184 52.12V44.12C110.176 44.12 104.544 45.6047 99.3598 48.567L103.329 55.513ZM116.184 52.12C121.391 52.12 125.126 53.1486 127.728 54.8358L132.081 48.1242C127.776 45.3314 122.365 44.12 116.184 44.12V52.12ZM127.768 54.862C130.89 56.8338 133.191 59.0944 134.79 61.6075L141.539 57.3125C139.218 53.6655 136.012 50.6062 132.04 48.098L127.768 54.862ZM134.419 58.0555L133.579 60.2955L141.07 63.1045L141.91 60.8645L134.419 58.0555ZM141.285 62.2586L142.825 51.3386L134.904 50.2214L133.364 61.1414L141.285 62.2586ZM138.864 54.78H153.284V46.78H138.864V54.78ZM149.284 50.78V110H157.284V50.78H149.284ZM153.284 106H137.604V114H153.284V106ZM141.604 110V95.58H133.604V110H141.604ZM133.9 97.0892L135.44 100.869L142.849 97.8508L141.309 94.0708L133.9 97.0892ZM135.816 97.1412C135.593 97.4756 134.995 98.2417 133.867 99.5568L139.941 104.763C141.054 103.465 141.949 102.364 142.473 101.579L135.816 97.1412ZM133.965 99.4469C133.059 100.428 131.716 101.624 129.86 103.038L134.709 109.402C136.773 107.829 138.509 106.319 139.844 104.873L133.965 99.4469ZM129.86 103.038C128.255 104.261 126.273 105.347 123.866 106.26L126.703 113.74C129.709 112.6 132.394 111.165 134.709 109.402L129.86 103.038ZM123.822 106.277C121.768 107.084 119.249 107.54 116.184 107.54V115.54C120.027 115.54 123.574 114.969 126.747 113.723L123.822 106.277ZM120.524 102.66C123.821 102.66 126.921 102.053 129.751 100.756L126.418 93.4837C124.768 94.2401 122.828 94.66 120.524 94.66V102.66ZM129.695 100.781C132.559 99.5211 135.018 97.7171 137.012 95.3706L130.917 90.1894C129.738 91.5763 128.276 92.6656 126.473 93.4587L129.695 100.781ZM136.938 95.4559C139.058 93.1004 140.551 90.3084 141.45 87.1589L133.758 84.9611C133.165 87.0383 132.231 88.7263 130.991 90.1041L136.938 95.4559ZM141.604 86.06V73.18H133.604V86.06H141.604ZM141.427 72.0037C140.507 69.0122 138.989 66.3673 136.868 64.129L131.061 69.631C132.3 70.9394 133.208 72.4944 133.781 74.3563L141.427 72.0037ZM136.938 64.2041C134.846 61.8805 132.302 60.0996 129.363 58.8561L126.246 66.2239C128.16 67.0337 129.722 68.1462 130.991 69.5559L136.938 64.2041ZM129.415 58.8787C126.51 57.6004 123.338 57 119.964 57V65C122.378 65 124.432 65.4262 126.193 66.2013L129.415 58.8787ZM119.964 57C116.088 57 112.449 57.9786 109.121 59.9292L113.167 66.8308C115.253 65.6081 117.494 65 119.964 65V57ZM109.121 59.9292C105.813 61.869 103.145 64.5515 101.134 67.902L107.994 72.018C109.344 69.7685 111.063 68.0644 113.167 66.8308L109.121 59.9292ZM101.084 67.9879C99.1141 71.4647 98.1844 75.3809 98.1844 79.62H106.184C106.184 76.5791 106.841 74.0553 108.044 71.932L101.084 67.9879ZM98.1844 79.62C98.1844 83.8282 99.1895 87.7482 101.245 91.2885L108.164 87.2715C106.859 85.0252 106.184 82.5052 106.184 79.62H98.1844ZM101.245 91.2885C103.256 94.7515 105.972 97.5334 109.366 99.57L113.482 92.71C111.277 91.3866 109.513 89.5952 108.164 87.2715L101.245 91.2885ZM109.366 99.57C112.788 101.623 116.533 102.66 120.524 102.66V94.66C117.982 94.66 115.66 94.0169 113.482 92.71L109.366 99.57ZM174.936 0.799996V-3.2H170.936V0.799996H174.936ZM190.616 0.799996H194.616V-3.2H190.616V0.799996ZM190.616 110V114H194.616V110H190.616ZM174.936 110H170.936V114H174.936V110ZM174.936 4.8H190.616V-3.2H174.936V4.8ZM186.616 0.799996V110H194.616V0.799996H186.616ZM190.616 106H174.936V114H190.616V106ZM178.936 110V0.799996H170.936V110H178.936ZM222.484 107.48L224.404 103.971L222.484 107.48ZM211.144 96.28L207.622 98.1764L207.63 98.1907L207.637 98.205L211.144 96.28ZM211.704 63.8L208.315 61.674L208.315 61.674L211.704 63.8ZM223.744 52.46L225.686 55.9566L225.697 55.9506L225.708 55.9446L223.744 52.46ZM260.704 55.26L258.01 58.2174L258.038 58.2425L258.066 58.267L260.704 55.26ZM271.344 75.14L272.622 78.9303L275.977 77.7987L275.261 74.331L271.344 75.14ZM223.604 91.24L219.906 92.766L221.334 96.2266L224.882 95.0303L223.604 91.24ZM219.964 82.42L218.618 78.653L214.665 80.0651L216.266 83.9459L219.964 82.42ZM257.204 69.12L259.172 72.6022L255.858 65.353L257.204 69.12ZM253.984 70.94L250.228 72.317L251.85 76.7406L255.952 74.4222L253.984 70.94ZM248.944 63.66L246.241 66.6086L246.271 66.636L246.301 66.6628L248.944 63.66ZM230.744 62.96L232.783 66.4012L232.829 66.3737L232.875 66.3449L230.744 62.96ZM224.724 69.4L221.194 67.5176L221.182 67.5399L221.171 67.5623L224.724 69.4ZM225.004 89.14L228.511 87.2167L228.511 87.2167L225.004 89.14ZM231.444 95.86L229.421 99.3108L229.466 99.3371L229.511 99.3623L231.444 95.86ZM247.684 96.84L249.088 100.585L249.088 100.585L247.684 96.84ZM253.984 93.48L257.392 91.3859L255.147 87.7332L251.659 90.2251L253.984 93.48ZM261.124 105.1L263.271 108.475L266.593 106.361L264.532 103.006L261.124 105.1ZM250.904 109.86L252.08 113.683L252.11 113.674L252.14 113.664L250.904 109.86ZM240.404 107.54C233.915 107.54 228.636 106.287 224.404 103.971L220.564 110.989C226.225 114.087 232.892 115.54 240.404 115.54V107.54ZM224.404 103.971C220.099 101.615 216.882 98.42 214.65 94.355L207.637 98.205C210.632 103.66 214.975 107.931 220.564 110.989L224.404 103.971ZM214.666 94.3836C212.397 90.1702 211.224 85.3727 211.224 79.9H203.224C203.224 86.5606 204.664 92.6832 207.622 98.1764L214.666 94.3836ZM211.224 79.9C211.224 74.6292 212.531 70.0082 215.092 65.926L208.315 61.674C204.904 67.1118 203.224 73.2241 203.224 79.9H211.224ZM215.092 65.926C217.71 61.7528 221.22 58.4379 225.686 55.9566L221.801 48.9634C216.187 52.0821 211.67 56.3272 208.315 61.674L215.092 65.926ZM225.708 55.9446C230.214 53.4047 235.179 52.12 240.684 52.12V44.12C233.868 44.12 227.54 45.7286 221.78 48.9754L225.708 55.9446ZM240.684 52.12C247.966 52.12 253.63 54.2277 258.01 58.2174L263.397 52.3026C257.325 46.7723 249.642 44.12 240.684 44.12V52.12ZM258.066 58.267C262.589 62.2342 265.786 68.0072 267.426 75.949L275.261 74.331C273.355 65.0995 269.459 57.6192 263.342 52.253L258.066 58.267ZM270.066 71.3497L222.326 87.4497L224.882 95.0303L272.622 78.9303L270.066 71.3497ZM227.301 89.714L223.661 80.894L216.266 83.9459L219.906 92.766L227.301 89.714ZM221.309 86.187L258.549 72.887L255.858 65.353L218.618 78.653L221.309 86.187ZM255.236 65.6377L252.016 67.4577L255.952 74.4222L259.172 72.6022L255.236 65.6377ZM257.739 69.563C256.473 66.1099 254.398 63.1319 251.586 60.6571L246.301 66.6628C248.156 68.2948 249.441 70.1701 250.228 72.317L257.739 69.563ZM251.647 60.7114C248.442 57.7741 244.174 56.58 239.424 56.58V64.58C242.887 64.58 244.965 65.4392 246.241 66.6086L251.647 60.7114ZM239.424 56.58C235.479 56.58 231.832 57.548 228.612 59.5751L232.875 66.3449C234.696 65.1987 236.835 64.58 239.424 64.58V56.58ZM228.705 59.5188C225.502 61.4165 223.003 64.1272 221.194 67.5176L228.253 71.2824C229.432 69.0728 230.945 67.4901 232.783 66.4012L228.705 59.5188ZM221.171 67.5623C219.418 70.9509 218.624 74.8291 218.624 79.06H226.624C226.624 75.8243 227.229 73.2624 228.277 71.2377L221.171 67.5623ZM218.624 79.06C218.624 83.4509 219.538 87.4925 221.497 91.0633L228.511 87.2167C227.296 85.0009 226.624 82.3224 226.624 79.06H218.624ZM221.497 91.0633C223.412 94.5564 226.058 97.3392 229.421 99.3108L233.467 92.4092C231.417 91.2074 229.769 89.5103 228.511 87.2167L221.497 91.0633ZM229.511 99.3623C232.877 101.219 236.635 102.1 240.684 102.1V94.1C237.826 94.1 235.424 93.4877 233.376 92.3577L229.511 99.3623ZM240.684 102.1C243.583 102.1 246.393 101.596 249.088 100.585L246.279 93.0947C244.495 93.7638 242.638 94.1 240.684 94.1V102.1ZM249.088 100.585C251.657 99.6219 254.067 98.3365 256.309 96.7349L251.659 90.2251C249.981 91.4235 248.19 92.3781 246.279 93.0947L249.088 100.585ZM250.576 95.5741L257.716 107.194L264.532 103.006L257.392 91.3859L250.576 95.5741ZM258.976 101.725C256.201 103.491 253.104 104.939 249.667 106.056L252.14 113.664C256.17 112.354 259.886 110.629 263.271 108.475L258.976 101.725ZM249.727 106.037C246.419 107.055 243.316 107.54 240.404 107.54V115.54C244.212 115.54 248.109 114.905 252.08 113.683L249.727 106.037ZM291.672 108.88L290.202 112.6L290.216 112.606L290.231 112.611L291.672 108.88ZM281.452 101.88L278.27 99.4558L276.252 102.106L278.492 104.571L281.452 101.88ZM288.172 93.06L290.949 90.1806L287.714 87.0613L284.99 90.6358L288.172 93.06ZM295.872 98.66L294.137 102.264L294.216 102.302L294.297 102.337L295.872 98.66ZM308.052 99.78L309.083 103.645L309.165 103.623L309.245 103.598L308.052 99.78ZM311.552 97.68L308.724 94.8516L308.649 94.926L308.579 95.0041L311.552 97.68ZM310.992 89.56L308.389 92.597L308.454 92.6526L308.521 92.7053L310.992 89.56ZM305.952 86.9L304.585 90.6592L304.662 90.687L304.739 90.7117L305.952 86.9ZM299.512 84.8L298.331 88.6216L298.362 88.631L298.392 88.64L299.512 84.8ZM288.032 77.8L284.936 80.333L284.936 80.333L288.032 77.8ZM286.632 58.34L290.112 60.312L290.126 60.2878L290.139 60.2633L286.632 58.34ZM293.912 51.2L295.897 54.673L295.897 54.673L293.912 51.2ZM317.852 49.94L316.653 53.756L316.717 53.7761L316.782 53.7941L317.852 49.94ZM327.232 54.84L330.599 57.0005L332.537 53.9796L329.743 51.7263L327.232 54.84ZM321.212 64.22L318.466 67.1281L321.973 70.4404L324.579 66.3805L321.212 64.22ZM315.192 60.58L313.654 64.2723L313.745 64.3102L313.837 64.3435L315.192 60.58ZM309.032 59.04L308.81 63.0338L308.821 63.0345L308.832 63.035L309.032 59.04ZM304.552 59.74L305.898 63.507L306.014 63.4653L306.128 63.4166L304.552 59.74ZM301.332 61.84L298.359 59.1641L298.281 59.2505L298.209 59.3412L301.332 61.84ZM300.212 65.06L304.207 65.2597L304.212 65.1599V65.06H300.212ZM302.032 69.54L299.429 72.577L299.48 72.6211L299.533 72.6635L302.032 69.54ZM313.792 74.3L312.478 78.078L312.577 78.1123L312.677 78.1414L313.792 74.3ZM321.492 77.8L319.273 81.1282L319.273 81.1282L321.492 77.8ZM326.672 83.26L323.19 85.2282L323.241 85.3193L323.298 85.4075L326.672 83.26ZM325.972 101.04L329.439 103.036L329.451 103.014L329.464 102.991L325.972 101.04ZM317.992 108.46L316.129 104.92L316.129 104.92L317.992 108.46ZM304.552 107.26C300.556 107.26 296.752 106.555 293.114 105.149L290.231 112.611C294.805 114.379 299.588 115.26 304.552 115.26V107.26ZM293.143 105.16C289.676 103.79 286.785 101.8 284.412 99.1893L278.492 104.571C281.719 108.12 285.641 110.797 290.202 112.6L293.143 105.16ZM284.634 104.304L291.354 95.4842L284.99 90.6358L278.27 99.4558L284.634 104.304ZM285.396 95.9394C288.229 98.6716 291.139 100.82 294.137 102.264L297.607 95.056C295.566 94.0729 293.342 92.4884 290.949 90.1806L285.396 95.9394ZM294.297 102.337C297.302 103.624 300.313 104.34 303.292 104.34V96.34C301.605 96.34 299.669 95.9355 297.448 94.9834L294.297 102.337ZM303.292 104.34C305.339 104.34 307.282 104.125 309.083 103.645L307.022 95.9151C306.023 96.1814 304.792 96.34 303.292 96.34V104.34ZM309.245 103.598C311.257 102.969 313.1 101.939 314.525 100.356L308.579 95.0041C308.324 95.2874 307.834 95.6573 306.859 95.9621L309.245 103.598ZM314.381 100.508C316.212 98.677 316.952 96.3182 316.952 93.9H308.952C308.952 94.6551 308.759 94.8163 308.724 94.8516L314.381 100.508ZM316.952 93.9C316.952 90.9781 315.863 88.3001 313.463 86.4147L308.521 92.7053C308.735 92.8732 308.952 93.0886 308.952 93.9H316.952ZM313.595 86.523C311.793 84.9783 309.605 83.8645 307.165 83.0883L304.739 90.7117C306.406 91.2421 307.578 91.9017 308.389 92.597L313.595 86.523ZM307.319 83.1408C305.179 82.3626 302.95 81.636 300.632 80.96L298.392 88.64C300.555 89.2707 302.619 89.944 304.585 90.6592L307.319 83.1408ZM300.693 80.9784C296.055 79.5446 293.004 77.5598 291.128 75.267L284.936 80.333C288.1 84.2002 292.703 86.8821 298.331 88.6216L300.693 80.9784ZM291.128 75.267C289.198 72.9083 288.252 70.2585 288.252 67.16H280.252C280.252 72.0881 281.826 76.5317 284.936 80.333L291.128 75.267ZM288.252 67.16C288.252 64.8028 288.85 62.5387 290.112 60.312L283.152 56.3679C281.241 59.7412 280.252 63.3572 280.252 67.16H288.252ZM290.139 60.2633C291.324 58.104 293.179 56.2259 295.897 54.673L291.928 47.727C288.112 49.9074 285.114 52.7894 283.125 56.4167L290.139 60.2633ZM295.897 54.673C298.398 53.2438 301.769 52.4 306.232 52.4V44.4C300.802 44.4 295.96 45.4229 291.928 47.727L295.897 54.673ZM306.232 52.4C310.423 52.4 313.873 52.8822 316.653 53.756L319.051 46.124C315.298 44.9444 311.001 44.4 306.232 44.4V52.4ZM316.782 53.7941C319.582 54.5719 322.224 55.9399 324.721 57.9536L329.743 51.7263C326.454 49.0735 322.842 47.1747 318.923 46.0859L316.782 53.7941ZM323.866 52.6795L317.846 62.0595L324.579 66.3805L330.599 57.0005L323.866 52.6795ZM323.959 61.3119C321.85 59.3204 319.36 57.829 316.547 56.8164L313.837 64.3435C315.691 65.011 317.214 65.9463 318.466 67.1281L323.959 61.3119ZM316.731 56.8877C314.185 55.8272 311.673 55.1671 309.232 55.045L308.832 63.035C310.124 63.0996 311.719 63.4661 313.654 64.2723L316.731 56.8877ZM309.254 55.0462C307.071 54.9249 304.945 55.2198 302.977 56.0634L306.128 63.4166C306.773 63.1402 307.634 62.9685 308.81 63.0338L309.254 55.0462ZM303.207 55.973C301.342 56.6389 299.688 57.6875 298.359 59.1641L304.305 64.5159C304.656 64.1258 305.149 63.7744 305.898 63.507L303.207 55.973ZM298.209 59.3412C296.885 60.9954 296.212 62.9533 296.212 65.06H304.212C304.212 64.74 304.286 64.5513 304.456 64.3388L298.209 59.3412ZM296.217 64.8602C296.068 67.8406 297.093 70.575 299.429 72.577L304.635 66.503C304.358 66.265 304.17 66.0127 304.207 65.2597L296.217 64.8602ZM299.533 72.6635C301.415 74.169 303.673 75.2615 306.188 76.0267L308.517 68.3733C306.738 67.8319 305.449 67.151 304.531 66.4165L299.533 72.6635ZM306.188 76.0267C308.283 76.6646 310.38 77.3483 312.478 78.078L315.106 70.522C312.911 69.7584 310.714 69.0421 308.517 68.3733L306.188 76.0267ZM312.677 78.1414C315.224 78.881 317.411 79.8864 319.273 81.1282L323.711 74.4718C321.094 72.7269 318.147 71.399 314.907 70.4586L312.677 78.1414ZM319.273 81.1282C321.04 82.3061 322.313 83.6765 323.19 85.2282L330.154 81.2918C328.605 78.5501 326.424 76.2806 323.711 74.4718L319.273 81.1282ZM323.298 85.4075C324.1 86.6686 324.632 88.4402 324.632 90.96H332.632C332.632 87.3198 331.858 83.9581 330.047 81.1125L323.298 85.4075ZM324.632 90.96C324.632 93.8059 323.929 96.4962 322.48 99.0887L329.464 102.991C331.562 99.2371 332.632 95.2074 332.632 90.96H324.632ZM322.506 99.0441C321.157 101.387 319.094 103.36 316.129 104.92L319.855 112C323.984 109.827 327.241 106.853 329.439 103.036L322.506 99.0441ZM316.129 104.92C313.323 106.397 309.534 107.26 304.552 107.26V115.26C310.397 115.26 315.568 114.256 319.855 112L316.129 104.92ZM424.791 102.02L427.157 105.246L429.815 103.297L428.41 100.315L424.791 102.02ZM418.211 105.8L420 109.378L420 109.378L418.211 105.8ZM407.571 109.72L408.563 113.595L408.593 113.587L408.624 113.579L407.571 109.72ZM394.131 111.12L394.207 107.121L394.193 107.12L394.178 107.12L394.131 111.12ZM372.711 106.92L371.097 110.58L371.119 110.59L371.142 110.599L372.711 106.92ZM356.611 95.72L353.67 98.4307L353.683 98.4452L353.697 98.4596L356.611 95.72ZM346.391 79.48L342.651 80.8969L342.664 80.9314L342.678 80.9656L346.391 79.48ZM346.531 38.6L342.788 37.1896L342.788 37.1896L346.531 38.6ZM356.891 21.94L359.777 24.7101L359.791 24.6959L359.804 24.6815L356.891 21.94ZM372.851 10.88L374.414 14.5623L374.414 14.5623L372.851 10.88ZM410.231 9.62L408.904 13.3932L408.945 13.4079L408.987 13.4216L410.231 9.62ZM423.111 15.36L426.802 16.9032L428.116 13.761L425.223 11.9629L423.111 15.36ZM416.671 30.76L414.346 34.0149L418.427 36.9296L420.362 32.3032L416.671 30.76ZM380.691 25.44L382.277 29.1122L382.312 29.0972L382.347 29.0815L380.691 25.44ZM369.911 33.14L372.822 35.884L372.841 35.8636L372.86 35.8429L369.911 33.14ZM362.491 44.62L358.811 43.0538L358.797 43.0872L358.783 43.1208L362.491 44.62ZM362.211 73.6L358.441 74.9354L358.458 74.9832L358.476 75.0306L362.211 73.6ZM369.211 85.08L366.259 87.7791L366.28 87.8017L366.301 87.8241L369.211 85.08ZM380.131 92.78L378.507 96.4352L378.555 96.4568L378.604 96.477L380.131 92.78ZM408.271 93.06L409.772 96.7678L409.794 96.7589L409.816 96.7498L408.271 93.06ZM417.931 87.46L421.55 85.7551L419.328 81.0387L415.348 84.4065L417.931 87.46ZM422.426 98.7944C421.305 99.6163 419.356 100.756 416.423 102.222L420 109.378C423.04 107.858 425.478 106.477 427.157 105.246L422.426 98.7944ZM416.423 102.222C413.725 103.571 410.437 104.792 406.519 105.861L408.624 113.579C412.919 112.408 416.724 111.016 420 109.378L416.423 102.222ZM406.58 105.845C402.975 106.767 398.861 107.209 394.207 107.121L394.056 115.119C399.295 115.218 404.141 114.726 408.563 113.595L406.58 105.845ZM394.178 107.12C386.691 107.032 380.079 105.713 374.281 103.241L371.142 110.599C378.037 113.54 385.705 115.021 394.084 115.12L394.178 107.12ZM374.326 103.26C368.429 100.659 363.516 97.2248 359.526 92.9804L353.697 98.4596C358.48 103.549 364.301 107.581 371.097 110.58L374.326 103.26ZM359.553 93.0093C355.499 88.6107 352.353 83.6135 350.105 77.9944L342.678 80.9656C345.283 87.4799 348.95 93.3093 353.67 98.4307L359.553 93.0093ZM350.132 78.0631C347.978 72.3775 346.891 66.3263 346.891 59.88H338.891C338.891 67.247 340.138 74.2625 342.651 80.8969L350.132 78.0631ZM346.891 59.88C346.891 52.555 348.038 45.9466 350.274 40.0104L342.788 37.1896C340.172 44.1334 338.891 51.7116 338.891 59.88H346.891ZM350.274 40.0104C352.523 34.0442 355.695 28.9617 359.777 24.7101L354.006 19.1699C349.127 24.2516 345.394 30.2758 342.788 37.1896L350.274 40.0104ZM359.804 24.6815C363.895 20.335 368.752 16.9643 374.414 14.5623L371.289 7.19767C364.631 10.0223 358.848 14.025 353.979 19.1985L359.804 24.6815ZM374.414 14.5623C380.037 12.1764 386.221 10.96 393.011 10.96V2.95999C385.242 2.95999 377.985 4.35687 371.289 7.19767L374.414 14.5623ZM393.011 10.96C399.089 10.96 404.368 11.7972 408.904 13.3932L411.559 5.84675C406.015 3.89611 399.814 2.95999 393.011 2.95999V10.96ZM408.987 13.4216C413.909 15.0324 417.89 16.8243 421 18.7571L425.223 11.9629C421.426 9.60233 416.82 7.56761 411.476 5.81841L408.987 13.4216ZM419.421 13.8168L412.981 29.2168L420.362 32.3032L426.802 16.9032L419.421 13.8168ZM418.996 27.5051C416.113 25.4457 412.603 23.5027 408.52 21.6556L405.223 28.9444C408.98 30.644 412.003 32.3409 414.346 34.0149L418.996 27.5051ZM408.52 21.6556C404.01 19.6153 399.002 18.64 393.571 18.64V26.64C398.034 26.64 401.893 27.438 405.223 28.9444L408.52 21.6556ZM393.571 18.64C388.516 18.64 383.659 19.6973 379.036 21.7985L382.347 29.0815C385.937 27.4494 389.666 26.64 393.571 26.64V18.64ZM379.106 21.7677C374.471 23.7689 370.416 26.6697 366.963 30.4371L372.86 35.8429C375.567 32.8903 378.698 30.6578 382.277 29.1122L379.106 21.7677ZM367.001 30.3959C363.577 34.0274 360.851 38.2592 358.811 43.0538L366.172 46.1862C367.865 42.2075 370.086 38.7859 372.822 35.884L367.001 30.3959ZM358.783 43.1208C356.801 48.0229 355.831 53.2968 355.831 58.9H363.831C363.831 54.2366 364.635 49.9904 366.2 46.1192L358.783 43.1208ZM355.831 58.9C355.831 64.6211 356.685 69.9786 358.441 74.9354L365.982 72.2646C364.564 68.2614 363.831 63.8189 363.831 58.9H355.831ZM358.476 75.0306C360.324 79.8564 362.914 84.1202 366.259 87.7791L372.164 82.3809C369.535 79.5065 367.459 76.1169 365.947 72.1694L358.476 75.0306ZM366.301 87.8241C369.754 91.486 373.834 94.3583 378.507 96.4352L381.756 89.1248C378.029 87.4683 374.829 85.2074 372.122 82.3359L366.301 87.8241ZM378.604 96.477C383.439 98.4739 388.726 99.44 394.411 99.44V91.44C389.643 91.44 385.411 90.6327 381.658 89.083L378.604 96.477ZM394.411 99.44C400.118 99.44 405.27 98.5902 409.772 96.7678L406.771 89.3522C403.433 90.7031 399.345 91.44 394.411 91.44V99.44ZM409.816 96.7498C414.078 94.9659 417.686 92.9079 420.515 90.5135L415.348 84.4065C413.324 86.1188 410.492 87.7941 406.727 89.3702L409.816 96.7498ZM414.313 89.1649L421.173 103.725L428.41 100.315L421.55 85.7551L414.313 89.1649ZM490.635 10.32L489.416 14.1297L489.451 14.1408L489.486 14.1513L490.635 10.32ZM502.535 16.62L505.138 13.583L505.138 13.583L502.535 16.62ZM510.095 26.98L506.423 28.5657L506.445 28.6166L506.468 28.6669L510.095 26.98ZM511.075 52.88L514.904 54.0376L514.904 54.0376L511.075 52.88ZM505.055 63.8L502.018 61.1968L501.996 61.2222L501.975 61.2479L505.055 63.8ZM462.915 74.58V70.58H458.915V74.58H462.915ZM462.915 110V114H466.915V110H462.915ZM446.535 110H442.535V114H446.535V110ZM446.535 8.07999V4.07999H442.535V8.07999H446.535ZM486.575 57.22L488.251 60.8518L488.308 60.8257L488.364 60.7977L486.575 57.22ZM492.175 52.74L489.036 50.2614L488.994 50.3136L488.955 50.3672L492.175 52.74ZM495.115 47.14L491.303 45.9272L491.285 45.9839L491.269 46.0411L495.115 47.14ZM495.255 35.94L491.396 36.9925L491.402 37.0157L491.409 37.0389L495.255 35.94ZM492.455 30.2L489.178 32.4938L489.206 32.5337L489.235 32.5728L492.455 30.2ZM486.855 25.58L485.01 29.1289L485.038 29.1435L485.066 29.1577L486.855 25.58ZM462.915 23.76V19.76H458.915V23.76H462.915ZM462.915 58.9H458.915V62.9H462.915V58.9ZM495.115 68.56L498.502 66.4318L497.296 64.512L495.029 64.5609L495.115 68.56ZM521.155 110V114H528.393L524.542 107.872L521.155 110ZM502.255 110L498.899 112.176L500.082 114H502.255V110ZM475.655 68.98L475.569 64.9809L468.395 65.1358L472.299 71.1563L475.655 68.98ZM475.235 12.08C480.479 12.08 485.195 12.779 489.416 14.1297L491.854 6.5103C486.742 4.87431 481.191 4.07999 475.235 4.07999V12.08ZM489.486 14.1513C493.688 15.4121 497.142 17.2655 499.932 19.657L505.138 13.583C501.395 10.3745 496.915 8.02788 491.785 6.48869L489.486 14.1513ZM499.932 19.657C502.718 22.045 504.881 24.995 506.423 28.5657L513.767 25.3942C511.763 20.7516 508.886 16.795 505.138 13.583L499.932 19.657ZM506.468 28.6669C508.049 32.0648 508.895 36.0918 508.895 40.84H516.895C516.895 35.1349 515.875 29.9219 513.722 25.2931L506.468 28.6669ZM508.895 40.84C508.895 44.4439 508.351 48.0676 507.246 51.7224L514.904 54.0376C516.226 49.6657 516.895 45.2627 516.895 40.84H508.895ZM507.246 51.7224C506.198 55.1901 504.466 58.3405 502.018 61.1968L508.092 66.4032C511.244 62.7262 513.526 58.5966 514.904 54.0376L507.246 51.7224ZM501.975 61.2479C499.724 63.9649 496.667 66.2275 492.672 67.9754L495.878 75.3046C500.843 73.1325 504.973 70.1684 508.135 66.3521L501.975 61.2479ZM492.672 67.9754C488.843 69.6505 483.875 70.58 477.615 70.58V78.58C484.609 78.58 490.747 77.5495 495.878 75.3046L492.672 67.9754ZM477.615 70.58H462.915V78.58H477.615V70.58ZM458.915 74.58V110H466.915V74.58H458.915ZM462.915 106H446.535V114H462.915V106ZM450.535 110V8.07999H442.535V110H450.535ZM446.535 12.08H475.235V4.07999H446.535V12.08ZM477.475 62.9C481.496 62.9 485.145 62.2855 488.251 60.8518L484.899 53.5882C483.152 54.3945 480.734 54.9 477.475 54.9V62.9ZM488.364 60.7977C491.228 59.366 493.637 57.4998 495.395 55.1128L488.955 50.3672C488.1 51.5269 486.776 52.6474 484.786 53.6423L488.364 60.7977ZM495.315 55.2186C497.003 53.0802 498.243 50.7522 498.961 48.2389L491.269 46.0411C490.867 47.4478 490.147 48.8531 489.036 50.2614L495.315 55.2186ZM498.927 48.3528C499.679 45.9886 500.095 43.6623 500.095 41.4H492.095C492.095 42.6844 491.858 44.1847 491.303 45.9272L498.927 48.3528ZM500.095 41.4C500.095 39.2791 499.742 37.0852 499.101 34.8411L491.409 37.0389C491.888 38.7148 492.095 40.1609 492.095 41.4H500.095ZM499.114 34.8875C498.42 32.3418 497.264 29.9834 495.675 27.8272L489.235 32.5728C490.26 33.9633 490.97 35.4315 491.396 36.9925L499.114 34.8875ZM495.732 27.9061C493.977 25.3993 491.552 23.4565 488.644 22.0023L485.066 29.1577C487.011 30.1301 488.32 31.2673 489.178 32.4938L495.732 27.9061ZM488.701 22.0311C485.634 20.4364 482.01 19.76 478.035 19.76V27.76C481.153 27.76 483.41 28.2969 485.01 29.1289L488.701 22.0311ZM478.035 19.76H462.915V27.76H478.035V19.76ZM458.915 23.76V58.9H466.915V23.76H458.915ZM462.915 62.9H477.475V54.9H462.915V62.9ZM491.728 70.6882L517.768 112.128L524.542 107.872L498.502 66.4318L491.728 70.6882ZM521.155 106H502.255V114H521.155V106ZM505.611 107.824L479.011 66.8037L472.299 71.1563L498.899 112.176L505.611 107.824ZM475.741 72.9791L495.201 72.5591L495.029 64.5609L475.569 64.9809L475.741 72.9791ZM540.324 110H536.324V114H540.324V110ZM540.324 4.44V0.439999H536.324V4.44H540.324ZM540.464 4.44L543.731 2.13234L542.536 0.439999H540.464V4.44ZM595.344 82.14L594.485 86.0466L604.567 88.2647L598.611 79.8323L595.344 82.14ZM588.344 80.6L585.093 78.2694L581.557 83.2024L587.485 84.5066L588.344 80.6ZM642.944 4.44V0.439999H640.89L639.693 2.1094L642.944 4.44ZM643.224 4.44H647.224V0.439999H643.224V4.44ZM643.224 110V114H647.224V110H643.224ZM626.984 110H622.984V114H626.984V110ZM626.984 41.26L630.949 40.7313L622.984 41.26H626.984ZM628.104 49.66L631.37 51.9691L632.277 50.6874L632.069 49.1313L628.104 49.66ZM591.284 101.74V105.74H593.355L594.55 104.049L591.284 101.74ZM591.004 101.74L587.763 104.084L588.96 105.74H591.004V101.74ZM553.344 49.66L549.585 48.293L548.86 50.2857L550.103 52.0039L553.344 49.66ZM556.144 41.96H560.144L552.385 40.593L556.144 41.96ZM556.144 110V114H560.144V110H556.144ZM544.324 110V4.44H536.324V110H544.324ZM540.324 8.44H540.464V0.439999H540.324V8.44ZM537.197 6.74766L592.077 84.4477L598.611 79.8323L543.731 2.13234L537.197 6.74766ZM596.204 78.2334L589.204 76.6934L587.485 84.5066L594.485 86.0466L596.204 78.2334ZM591.595 82.9306L646.195 6.7706L639.693 2.1094L585.093 78.2694L591.595 82.9306ZM642.944 8.44H643.224V0.439999H642.944V8.44ZM639.224 4.44V110H647.224V4.44H639.224ZM643.224 106H626.984V114H643.224V106ZM630.984 110V41.26H622.984V110H630.984ZM623.019 41.7887L624.139 50.1887L632.069 49.1313L630.949 40.7313L623.019 41.7887ZM624.838 47.3509L588.018 99.4309L594.55 104.049L631.37 51.9691L624.838 47.3509ZM591.284 97.74H591.004V105.74H591.284V97.74ZM594.246 99.3961L556.586 47.3161L550.103 52.0039L587.763 104.084L594.246 99.3961ZM557.103 51.027L559.903 43.327L552.385 40.593L549.585 48.293L557.103 51.027ZM552.144 41.96V110H560.144V41.96H552.144ZM556.144 106H540.324V114H556.144V106Z" fill="black" fill-opacity="0.8"/>
</g>
<defs>
<filter id="filter0_d_1210_5" x="0.880005" y="0.800049" width="646.344" height="124.74" filterUnits="userSpaceOnUse" color-interpolation-filters="sRGB">
<feFlood flood-opacity="0" result="BackgroundImageFix"/>
<feColorMatrix in="SourceAlpha" type="matrix" values="0 0 0 0 0 0 0 0 0 0 0 0 0 0 0 0 0 0 127 0" result="hardAlpha"/>
<feOffset dy="10"/>
<feGaussianBlur stdDeviation="2"/>
<feComposite in2="hardAlpha" operator="out"/>
<feColorMatrix type="matrix" values="0 0 0 0 0 0 0 0 0 0 0 0 0 0 0 0 0 0 0.25 0"/>
<feBlend mode="normal" in2="BackgroundImageFix" result="effect1_dropShadow_1210_5"/>
<feBlend mode="normal" in="SourceGraphic" in2="effect1_dropShadow_1210_5" result="shape"/>
</filter>
</defs>
</svg>
